<?xml version="1.0" encoding="UTF-8" standalone="no"?>
<!-- Created with Inkscape (http://www.inkscape.org/) -->

<svg
   width="21.760057mm"
   height="21.379219mm"
   viewBox="0 0 21.760057 21.379219"
   version="1.1"
   id="svg1"
   xml:space="preserve"
   xmlns="http://www.w3.org/2000/svg"
   xmlns:svg="http://www.w3.org/2000/svg"><defs
     id="defs1" /><g
     id="layer1"
     transform="translate(-48.044969,-158.7693)"><g
       id="g2"
       transform="matrix(0.26458333,0,0,0.26458333,44.317708,157.46016)"><g
         fill="currentColor"
         stroke="none"
         id="g1"><ellipse
           cx="62.241112"
           cy="48.241116"
           rx="24"
           ry="10.205561"
           id="ellipse1"
           style="stroke-width:1.06487" /><path
           d="m 38.224132,49.01698 c -4,-11 2.415213,-27.141567 4.415213,-37.141567 C 45.639345,6.8754126 50,5 51,11 51,22 41.741908,29.769712 47.950546,43.205561 Z"
           id="path1" /><path
           id="circle1"
           d="m 50.66063,8.7618479 c 0.930209,2.4748121 -0.845769,3.9934311 -3.918102,5.1482301 -3.072333,1.1548 -6.514536,0.250986 -7.88466,-2.0135 -1.759944,-2.9087652 0.419492,-6.9637315 4.516074,-6.9485888 3.268048,0.01208 6.356479,1.3390455 7.286688,3.8138587 z"
           style="stroke-width:1.0816" /><path
           style="fill:#000000;fill-opacity:1;stroke:#000000;stroke-width:2;stroke-linecap:round;stroke-dasharray:none;stroke-opacity:1;paint-order:stroke fill markers"
           d="m 80.483875,42.737244 13.02006,7.83614 -17.72175,3.0139 z"
           id="path4" /></g><path
         d="m 40.758922,11.219217 c -6.707056,2.510664 -15.516827,7.36386 -25.881,3.226017"
         fill="none"
         stroke="currentColor"
         stroke-width="1.58129"
         stroke-linecap="round"
         id="path2"
         style="stroke-linecap:round" /><g
         fill="none"
         stroke="currentColor"
         stroke-width="1.5"
         stroke-linecap="round"
         id="g5"
         transform="translate(3.1344583,-0.60278044)"><path
           style="fill:none;stroke:#000000;stroke-width:2;stroke-linecap:round;stroke-dasharray:none;stroke-opacity:1;paint-order:stroke fill markers"
           d="M 55.40821,56.48064 58.181,71.79126 51.18874,85.17298"
           id="path3" /></g><g
         fill="none"
         stroke="currentColor"
         stroke-width="1.5"
         stroke-linecap="round"
         id="g5-8"
         transform="translate(9.332912,-0.42174005)"><path
           style="fill:none;stroke:#000000;stroke-width:2;stroke-linecap:round;stroke-dasharray:none;stroke-opacity:1;paint-order:stroke fill markers"
           d="M 55.40821,56.48064 58.181,71.79126 51.18874,85.17298"
           id="path3-5" /></g></g></g></svg>
